HIERARCHY
ROOT Hips
{
	OFFSET -3.958830 18.904000 13.208200
	CHANNELS 6 Xposition Yposition Zposition Zrotation Yrotation Xrotation 
	JOINT LHipJoint
	{
		OFFSET 0.000000 0.000000 0.000000
		CHANNELS 3 Zrotation Yrotation Xrotation
		JOINT LeftUpLeg
		{
			OFFSET 1.800000 -1.400000 0.085000
			CHANNELS 3 Zrotation Yrotation Xrotation
			JOINT LeftLeg
			{
				OFFSET 2.215000 -6.000000 0.000000
				CHANNELS 3 Zrotation Yrotation Xrotation
				JOINT LeftFoot
				{
					OFFSET 2.500000 -6.900000 0.000000
					CHANNELS 3 Zrotation Yrotation Xrotation
					JOINT LeftToeBase
					{
						OFFSET 0.200000 -0.500000 1.950000
						CHANNELS 3 Zrotation Yrotation Xrotation
						End Site
						{
							OFFSET 0.000000 0.000000 0.000000
						}
					}
				}
			}
		}
	}
	JOINT RHipJoint
	{
		OFFSET 0.000000 0.000000 0.000000
		CHANNELS 3 Zrotation Yrotation Xrotation
		JOINT RightUpLeg
		{
			OFFSET -1.800000 -1.400000 0.085000
			CHANNELS 3 Zrotation Yrotation Xrotation
			JOINT RightLeg
			{
				OFFSET -2.215000 -6.000000 0.000000
				CHANNELS 3 Zrotation Yrotation Xrotation
				JOINT RightFoot
				{
					OFFSET -2.500000 -6.900000 0.000000
					CHANNELS 3 Zrotation Yrotation Xrotation
					JOINT RightToeBase
					{
						OFFSET -0.200000 -0.500000 1.950000
						CHANNELS 3 Zrotation Yrotation Xrotation
						End Site
						{
							OFFSET 0.000000 0.000000 0.000000
						}
					}
				}
			}
		}
	}
	JOINT LowerBack
	{
		OFFSET 0.000000 0.000000 0.000000
		CHANNELS 3 Zrotation Yrotation Xrotation
		JOINT Spine
		{
			OFFSET -0.087000 1.940000 -0.288900
			CHANNELS 3 Zrotation Yrotation Xrotation
			JOINT Spine1
			{
				OFFSET 0.000000 1.950000 0.060000
				CHANNELS 3 Zrotation Yrotation Xrotation
				JOINT Neck
				{
					OFFSET 0.000000 0.000000 0.000000
					CHANNELS 3 Zrotation Yrotation Xrotation
					JOINT Neck1
					{
						OFFSET 0.000000 1.600000 0.340000
						CHANNELS 3 Zrotation Yrotation Xrotation
						JOINT Head
						{
							OFFSET 0.000000 1.667000 -0.240000
							CHANNELS 3 Zrotation Yrotation Xrotation
							End Site
							{
								OFFSET 0.000000 0.000000 0.000000
							}
						}
					}
				}
				JOINT LeftShoulder
				{
					OFFSET 0.000000 0.000000 0.000000
					CHANNELS 3 Zrotation Yrotation Xrotation
					JOINT LeftArm
					{
						OFFSET 2.700000 1.550000 -0.730000
						CHANNELS 3 Zrotation Yrotation Xrotation
						JOINT LeftForeArm
						{
							OFFSET 5.450000 0.000000 0.000000
							CHANNELS 3 Zrotation Yrotation Xrotation
							JOINT LeftHand
							{
								OFFSET 3.450000 0.000000 0.000000
								CHANNELS 3 Zrotation Yrotation Xrotation
								JOINT LeftHandIndex1
								{
									OFFSET 0.750000 0.000000 0.000000
									CHANNELS 3 Zrotation Yrotation Xrotation
									End Site
									{
										OFFSET 0.000000 0.000000 0.000000
									}
								}
							}
						}
					}
				}
				JOINT RightShoulder
				{
					OFFSET 0.000000 0.000000 0.000000
					CHANNELS 3 Zrotation Yrotation Xrotation
					JOINT RightArm
					{
						OFFSET -2.700000 1.550000 -0.730000
						CHANNELS 3 Zrotation Yrotation Xrotation
						JOINT RightForeArm
						{
							OFFSET -5.450000 0.000000 0.000000
							CHANNELS 3 Zrotation Yrotation Xrotation
							JOINT RightHand
							{
								OFFSET -3.450000 0.000000 0.000000
								CHANNELS 3 Zrotation Yrotation Xrotation
								JOINT RightHandIndex1
								{
									OFFSET -0.750000 0.000000 0.000000
									CHANNELS 3 Zrotation Yrotation Xrotation
									End Site
									{
										OFFSET 0.000000 0.000000 0.000000
									}
								}
							}
						}
					}
				}
			}
		}
	}
}
MOTION
Frames: 10
Frame Time: 0.016667
-0.550090 17.282530 -4.812690 -20.137154 12.361221 3.366509 -15.564717 9.738564 3.646613 18.361882 -0.275938 -48.781811 5.987215 11.967597 53.678652 0.011283 10.068792 0.783860 0.124870 0.026650 -0.220120 18.955051 -4.405391 8.191160 -40.211790 16.343742 -89.680264 25.329965 -60.555716 99.680045 -5.199797 -22.124772 -1.579598 0.000660 0.424380 0.317160 -3.617662 -3.498032 -11.000586 16.199786 -6.661138 59.792428 -8.501301 1.953013 2.450955 5.476453 -11.797809 -17.106466 -31.119624 10.259842 46.223543 11.341320 -5.244600 -33.620390 -43.016688 -25.738557 2.431960 -33.269131 -0.752507 -17.699866 -107.442713 -71.264698 65.973787 -3.650070 2.544402 1.051330 -0.209050 0.357760 0.154890 32.956366 37.299310 14.716062 30.101408 11.819347 -9.749597 -11.647222 16.082846 -1.687118 2.081192 -0.744890 -0.292030 0.666040 0.438200 0.074120 
-0.564780 17.315290 -4.708930 -21.231780 10.928316 2.131010 -15.565035 9.696321 3.769565 22.253897 0.847066 -46.585834 2.558782 14.237434 53.087030 0.059131 10.399486 0.629834 0.231950 0.163730 -0.135990 18.922822 -4.492034 8.038296 -37.034059 20.584526 -96.166907 19.239857 -60.625287 108.223697 -5.632274 -23.773394 -1.799001 0.074190 0.361300 0.301790 -3.615670 -3.266231 -11.073910 13.775819 -5.047009 60.991199 -8.064106 3.792997 7.158983 5.595336 -10.778630 -20.870999 -30.955809 10.813278 49.190518 12.613690 -4.197760 -32.641910 -42.940714 -32.125519 2.471592 -31.354481 -4.558536 -20.808396 -124.214018 -71.251670 86.049442 -3.563825 2.249250 1.063190 -0.241670 0.410220 0.172570 33.511498 42.481052 17.670187 29.120864 10.229800 -7.799745 -8.842634 10.429245 -0.646387 2.122925 -0.730935 -0.260840 0.663310 0.370110 0.060400 
-0.550790 17.343360 -4.584050 -21.556390 12.424924 1.488851 -15.511804 9.574511 4.010830 24.694582 -0.477573 -45.524124 0.066691 15.141737 53.414748 0.034231 10.669339 0.499042 0.314600 0.242000 -0.077730 18.931960 -4.754502 7.713615 -32.896588 22.666775 -101.001451 13.443458 -59.361254 115.352232 -5.842444 -24.621073 -1.936779 0.144790 0.327320 0.302900 -3.703943 -2.913429 -11.035945 12.816043 -5.596219 60.501637 -7.488547 4.808139 9.608332 4.847311 -10.516731 -21.772942 -31.824512 11.048034 50.381347 14.354130 -4.072310 -33.001330 -40.358309 -34.469690 2.778955 -33.723667 -10.360216 -20.617671 -125.970927 -73.515334 91.591898 -3.592444 2.028187 1.106370 -0.273650 0.438960 0.175050 32.671502 44.020571 17.623266 31.575189 8.055598 -5.222896 -3.820663 4.347771 0.245648 2.174158 -0.586014 -0.265610 0.675810 0.354640 0.038200 
-0.504390 17.384310 -4.445270 -21.809241 13.270870 0.444690 -15.422035 9.729079 4.076435 26.569038 -2.177115 -42.411567 -3.055678 15.380152 51.574413 -0.055414 10.566502 0.481034 0.372460 0.307120 -0.051050 18.926719 -5.360141 7.251306 -24.938161 27.117093 -103.074420 6.337785 -52.627256 121.137771 -5.717662 -24.239183 -1.940181 0.200200 0.316940 0.336100 -3.867705 -2.472916 -10.836553 12.219077 -6.634993 59.269201 -7.681845 6.131530 12.086156 4.076306 -9.824347 -22.702207 -31.266319 11.059815 52.740069 15.147050 -3.676790 -31.821440 -38.843285 -37.430606 3.675168 -33.329039 -15.079047 -19.733739 -141.045748 -74.872304 112.256310 -3.420662 2.223215 1.120310 -0.262780 0.458560 0.175960 32.842062 45.636252 17.723242 34.069131 5.230150 -3.910453 2.643751 -3.120820 0.304241 2.218224 -0.426185 -0.253940 0.661290 0.356580 0.027190 
-0.475590 17.416010 -4.272340 -21.600490 14.129334 0.195004 -15.384066 9.932659 4.066575 27.448885 -3.363085 -40.022877 -4.823830 15.419094 50.163979 -0.071643 10.425544 0.509376 0.398200 0.368340 -0.054450 18.893628 -5.795325 6.895319 -20.206423 30.028501 -105.301671 -0.215877 -48.445437 127.902391 -5.631444 -23.859960 -1.882752 0.237580 0.322170 0.340220 -3.906433 -2.310570 -10.667876 11.735049 -6.298550 56.289135 -6.348702 6.298502 13.683968 2.839524 -9.481658 -22.210828 -30.926560 10.708002 53.999298 14.990960 -3.540570 -29.658110 -36.386443 -37.602356 5.590949 -35.779760 -20.447327 -16.655578 -178.168480 -74.135682 156.637003 -3.247668 2.794955 1.065620 -0.228830 0.447560 0.184270 32.819831 44.768903 17.184186 37.243200 2.427225 -4.281115 5.777620 -6.901335 -0.187314 2.248692 -0.464194 -0.228020 0.642440 0.341380 0.040490 
-0.436300 17.509640 -4.089290 -19.965289 18.488121 -0.946089 -15.358034 10.279653 3.689209 25.152456 -6.370602 -36.661966 -5.239200 13.376855 47.948130 -0.084995 9.650036 0.836522 0.406030 0.421570 -0.082250 18.869215 -5.937169 7.044561 -19.170396 26.667389 -106.639835 1.246144 -45.371049 124.769762 -5.280145 -22.573717 -1.690067 0.237880 0.362640 0.346220 -3.889025 -2.641382 -10.521655 10.035756 -7.181685 54.873087 -4.812629 4.804719 15.025527 1.534822 -8.292737 -21.930370 -28.454611 9.658577 54.864442 14.029850 -3.555040 -25.704150 -34.744689 -38.624738 7.705663 -35.063792 -25.766553 -12.956258 151.353206 -70.928663 -165.185848 -3.282928 3.109757 0.945070 -0.162740 0.419050 0.242840 33.537681 43.537857 16.943085 39.970847 -0.470802 -4.636263 6.772388 -7.429095 -0.453164 2.258985 -0.599691 -0.173070 0.613100 0.285820 0.089790 
-0.399880 17.595120 -3.881910 -18.507537 19.176303 -1.114393 -15.349777 10.631668 3.380334 24.070209 -7.213478 -32.773684 -6.411768 12.785349 45.520084 -0.087087 9.207368 1.040771 0.396830 0.435320 -0.065100 18.834935 -6.185331 6.991563 -12.738781 29.663067 -105.063184 -1.840594 -36.009946 122.838864 -4.750571 -20.662451 -1.405588 0.235670 0.379340 0.315820 -3.874121 -2.824643 -10.351539 7.674391 -6.323351 51.908823 -4.124399 4.320163 15.177732 0.526398 -7.248882 -20.647463 -26.648857 9.312108 55.643940 12.802220 -2.663790 -23.219550 -34.515947 -36.720173 8.647538 -37.210331 -29.789971 -8.383372 133.028058 -65.629633 -136.653372 -3.684279 2.706737 0.880990 -0.125850 0.400460 0.267680 34.807665 40.469855 16.528951 42.984296 -3.877951 -5.022588 4.809964 -5.568720 -0.117702 2.253230 -0.704585 -0.172790 0.622910 0.240170 0.094880 
-0.317860 17.728780 -3.695440 -18.720319 19.873344 -2.559246 -15.286231 11.065253 2.811155 22.914525 -7.153412 -27.642531 -5.754344 11.097414 41.831553 -0.200669 8.349041 1.360696 0.378520 0.442640 -0.076630 18.841755 -6.483742 7.079047 -4.129831 31.028524 -99.048881 -2.571110 -28.004052 115.729197 -4.252508 -18.906319 -1.124513 0.229280 0.394600 0.319200 -4.015021 -2.888613 -10.115667 7.308432 -7.620415 50.574825 -5.063896 3.133882 14.745628 0.058804 -6.305947 -19.703357 -24.538381 9.346937 55.575282 11.426900 -1.029070 -21.547470 -33.417276 -36.370372 8.840490 -34.639073 -30.932059 -7.061242 128.231204 -62.240602 -124.616182 -3.853850 2.408452 0.838890 -0.083900 0.393120 0.284860 34.219248 38.456016 16.107706 45.266538 -4.637616 -4.918220 3.320426 -5.704536 0.193312 2.276468 -0.779475 -0.167220 0.608620 0.221520 0.100570 
-0.219720 17.900950 -3.502230 -18.714104 22.455696 -5.055744 -15.223283 11.637031 2.102114 20.681375 -7.064021 -21.732806 -2.977552 8.416139 37.908477 -0.422476 7.229007 1.754622 0.388220 0.426960 -0.041710 18.826150 -6.849330 7.171693 1.943764 28.383158 -93.177238 -2.472067 -22.905218 107.866951 -3.812313 -17.393802 -0.909012 0.233530 0.360020 0.351760 -4.175921 -3.018747 -9.803986 7.279924 -9.642090 50.199573 -5.795092 1.210179 15.252637 -0.460471 -5.333712 -18.688800 -22.557054 8.745966 55.436220 10.461380 -0.153340 -21.604240 -31.913812 -36.774938 8.745101 -31.597893 -33.804177 -6.378347 122.204026 -58.171821 -107.970271 -3.980643 1.998971 0.855130 -0.075210 0.394730 0.259900 33.379582 36.441102 15.825392 47.175126 -5.318165 -4.869412 1.545150 -5.772935 0.538889 2.276341 -0.851033 -0.170720 0.554710 0.228610 0.060260 
-0.123840 18.045410 -3.313270 -18.552423 24.281425 -6.024431 -15.173190 12.086359 1.700072 19.350488 -6.513130 -17.220433 -1.457396 6.839844 33.275468 -0.511653 6.324128 2.132105 0.380300 0.437380 -0.071940 18.795843 -7.208284 7.057316 7.394014 25.849079 -87.781482 -1.280113 -19.567352 98.463741 -3.382457 -15.896547 -0.618897 0.233640 0.400890 0.378440 -4.315116 -3.139843 -9.519322 7.442049 -11.345986 47.565968 -6.491481 -0.785681 16.369617 -1.000429 -5.014350 -18.398464 -22.393523 9.444544 54.546991 9.450770 0.672610 -19.610090 -31.251669 -37.467760 8.935316 -28.670212 -34.981867 -8.503300 116.290447 -55.527145 -92.776294 -4.079457 1.714782 0.792020 -0.021920 0.372030 0.289020 33.595488 34.999545 15.904201 47.140492 -6.367108 -4.563364 1.817226 -6.594705 0.522245 2.289088 -0.892632 -0.149620 0.532130 0.218250 0.088940 
